# File created by Blade
# Date/Time:  Tue Sep 30 19:11:22 2014
#---------------------------------------------------------
:version 1.10
:name HOM
:units
  mass 1.0
  length 1.000000
  angle deg
:documentation
     Acclaim Skeleton File
:root
   axis xyz
   order TX TY TZ RX RY RZ
   position 0.000000 0.000000 0.000000
   orientation 0 0 0
:bonedata
   begin
      id 1
      name Spine_dum
      direction 0.000000 1.000000 0.000000
      length 7.508948
      axis 0.0 0.0 0.0 xyz
   end
   begin
      id 2
      name LeftUpLeg_dum
      direction 1.000000 0.000000 0.000000
      length 3.000560
      axis 0.0 0.0 0.0 xyz
   end
   begin
      id 3
      name RightUpLeg_dum
      direction -1.000000 0.000000 0.000000
      length 3.000560
      axis 0.0 0.0 0.0 xyz
   end
   begin
      id 4
      name Spine
      direction 0.000000 1.000000 0.000000
      length 0.000000
      axis 0.0 0.0 0.0 xyz
      dof rx ry rz
   end
   begin
      id 5
      name Spine_dum1
      direction 0.000000 1.000000 0.000000
      length 13.861154
      axis 0.0 0.0 0.0 xyz
   end
   begin
      id 6
      name Spine_dum2
      direction 0.000000 1.000000 0.000000
      length 8.204781
      axis 0.0 0.0 0.0 xyz
   end
   begin
      id 7
      name Spine_dum3
      direction 0.000000 1.000000 0.000000
      length 8.204781
      axis 0.0 0.0 0.0 xyz
   end
   begin
      id 8
      name Head
      direction 0.000000 1.000000 0.000000
      length 4.527550
      axis 0.0 0.0 0.0 xyz
      dof rx ry rz
   end
   begin
      id 9
      name LeftShoulder
      direction 1.000000 0.000000 0.000000
      length 6.635956
      axis 0.0 0.0 -90.0 xyz
      dof rx ry rz
   end
   begin
      id 10
      name LeftArm
      direction 1.000000 0.000000 0.000000
      length 10.274218
      axis 0.0 0.0 -90.0 xyz
      dof rx ry rz
   end
   begin
      id 11
      name LeftForeArm
      direction 1.000000 0.000000 0.000000
      length 8.522147
      axis 0.0 0.0 -90.0 xyz
      dof ry rz rx
   end
   begin
      id 12
      name LeftHand
      direction 0.000000 0.000000 0.000000
      length 0.000000
      axis 0.0 0.0 -90.0 xyz
      dof rx ry rz
   end
   begin
      id 13
      name LeftHand_dum1
      direction 0.000000 0.000000 0.000000
      length 0.000000
      axis 0.0 0.0 -90.0 xyz
   end
   begin
      id 14
      name LeftHand_dum2
      direction 1.000000 0.000000 0.000000
      length 3.937000
      axis 0.0 0.0 -90.0 xyz
   end
   begin
      id 15
      name LeftHandThumb1
      direction 0.000000 0.000000 1.000000
      length 3.937000
      axis 0.0 0.0 -90.0 xyz
      dof rx rz ry
   end
   begin
      id 16
      name RightShoulder
      direction -1.000000 0.000000 0.000000
      length 6.635956
      axis 0.0 0.0 90.0 xyz
      dof rx ry rz
   end
   begin
      id 17
      name RightArm
      direction -1.000000 0.000000 0.000000
      length 10.274218
      axis 0.0 0.0 90.0 xyz
      dof rx ry rz
   end
   begin
      id 18
      name RightForeArm
      direction -1.000000 0.000000 0.000000
      length 8.522147
      axis 0.0 0.0 90.0 xyz
      dof ry rz rx
   end
   begin
      id 19
      name RightHand
      direction 0.000000 0.000000 0.000000
      length 0.000000
      axis 0.0 0.0 90.0 xyz
      dof rx ry rz
   end
   begin
      id 20
      name RightHand_dum1
      direction 0.000000 0.000000 0.000000
      length 0.000000
      axis 0.0 0.0 90.0 xyz
   end
   begin
      id 21
      name RightHand_dum2
      direction -1.000000 0.000000 0.000000
      length 3.937000
      axis 0.0 0.0 90.0 xyz
   end
   begin
      id 22
      name RightHandThumb1
      direction 0.000000 0.000000 1.000000
      length 3.937000
      axis 0.0 0.0 90.0 xyz
      dof rx rz ry
   end
   begin
      id 23
      name LeftUpLeg
      direction 0.000000 -1.000000 0.000000
      length 16.490845
      axis 0.0 0.0 0.0 xyz
      dof rx ry rz
   end
   begin
      id 24
      name LeftLeg
      direction 0.000000 -1.000000 0.000000
      length 14.556576
      axis 0.0 0.0 0.0 xyz
      dof rx ry rz
   end
   begin
      id 25
      name LeftFoot
      direction 0.000000 -0.258819 0.965926
      length 4.831116
      axis 15.0 0.0 0.0 xyz
      dof rx ry rz
   end
   begin
      id 26
      name LeftToeBase
      direction 0.000000 0.000000 1.000000
      length 2.952750
      axis 0.0 0.0 0.0 xyz
      dof rx ry rz
   end
   begin
      id 27
      name RightUpLeg
      direction 0.000000 -1.000000 0.000000
      length 16.490845
      axis 0.0 0.0 0.0 xyz
      dof rx ry rz
   end
   begin
      id 28
      name RightLeg
      direction 0.000000 -1.000000 0.000000
      length 14.556576
      axis 0.0 0.0 0.0 xyz
      dof rx ry rz
   end
   begin
      id 29
      name RightFoot
      direction 0.000000 -0.258819 0.965926
      length 4.831116
      axis 15.0 0.0 0.0 xyz
      dof rx ry rz
   end
   begin
      id 30
      name RightToeBase
      direction 0.000000 0.000000 1.000000
      length 2.952750
      axis 0.0 0.0 0.0 xyz
      dof rx ry rz
   end
:hierarchy
   begin
      root Spine_dum LeftUpLeg_dum RightUpLeg_dum
      Spine_dum Spine
      LeftUpLeg_dum LeftUpLeg
      RightUpLeg_dum RightUpLeg
      Spine Spine_dum1 Spine_dum2 Spine_dum3
      Spine_dum1 Head
      Spine_dum2 LeftShoulder
      Spine_dum3 RightShoulder
      LeftShoulder LeftArm
      LeftArm LeftForeArm
      LeftForeArm LeftHand
      LeftHand LeftHand_dum1 LeftHand_dum2
      LeftHand_dum1 LeftHandThumb1
      RightShoulder RightArm
      RightArm RightForeArm
      RightForeArm RightHand
      RightHand RightHand_dum1 RightHand_dum2
      RightHand_dum1 RightHandThumb1
      LeftUpLeg LeftLeg
      LeftLeg LeftFoot
      LeftFoot LeftToeBase
      RightUpLeg RightLeg
      RightLeg RightFoot
      RightFoot RightToeBase
   end

# File created by Blade
# Date/Time:  Thu Sep 25 14:26:36 2014
# Frame Rate: 120.000 fps
#------------------------------------------------------
:FULLY-SPECIFIED
:DEGREES
73
root -2.578457 32.760752 -0.733576 10.413399 -1.067025 -1.160214
Spine -10.481711 5.330794 1.629745
Head -4.328697 -4.143149 8.382486
LeftShoulder -12.094567 17.700108 27.864268
LeftArm 22.298123 -18.633868 -32.104970
LeftForeArm 9.301452 -0.000000 12.862874
LeftHand -28.885421 0.000000 -3.565256
LeftHandThumb1 -26.253704 0.000000 33.147579
RightShoulder -18.143959 15.755796 -40.435952
RightArm -10.258837 5.845673 35.297968
RightForeArm -28.927220 -0.000000 16.709882
RightHand -12.134665 -0.000000 7.403980
RightHandThumb1 -24.326973 -0.000000 -32.862282
LeftUpLeg -3.596582 3.093732 1.096285
LeftLeg -2.988588 -0.000000 0.000000
LeftFoot -9.711356 6.103901 -16.508420
LeftToeBase 3.761029 -0.000000 -0.000000
RightUpLeg -6.252217 -7.834096 1.970964
RightLeg 1.660936 -0.000000 -0.000000
RightFoot -9.511095 -2.528759 -5.794168
RightToeBase -0.852642 -0.000000 0.000000
74
root -2.577656 32.760635 -0.731114 10.417975 -1.072058 -1.161179
Spine -10.485583 5.343699 1.638940
Head -4.338214 -4.153485 8.386185
LeftShoulder -12.098431 17.706155 27.864455
LeftArm 22.300199 -18.672894 -32.131864
LeftForeArm 9.293015 -0.000000 12.906310
LeftHand -28.939147 -0.000000 -3.577778
LeftHandThumb1 -26.253704 0.000000 33.147579
RightShoulder -18.150617 15.737177 -40.456558
RightArm -10.259361 5.850844 35.312679
RightForeArm -28.937036 0.000000 16.722851
RightHand -12.136682 -0.000000 7.374216
RightHandThumb1 -24.326973 -0.000000 -32.862282
LeftUpLeg -3.594009 3.095069 1.095629
LeftLeg -2.994817 -0.000000 0.000000
LeftFoot -9.710024 6.102079 -16.502633
LeftToeBase 3.766050 -0.000000 -0.000000
RightUpLeg -6.249410 -7.825351 1.967615
RightLeg 1.653016 -0.000000 -0.000000
RightFoot -9.506451 -2.532576 -5.797801
RightToeBase -0.867292 -0.000000 0.000000
75
root -2.577403 32.760359 -0.728267 10.420927 -1.073432 -1.161354
Spine -10.491299 5.341037 1.634534
Head -4.369044 -4.148798 8.398824
LeftShoulder -12.102946 17.718613 27.873425
LeftArm 22.301791 -18.706901 -32.149657
LeftForeArm 9.307829 -0.000000 12.923036
LeftHand -28.966175 -0.000000 -3.571992
LeftHandThumb1 -26.253704 0.000000 33.147579
RightShoulder -18.147679 15.738624 -40.458326
RightArm -10.260351 5.873155 35.311759
RightForeArm -28.999842 -0.000000 16.720466
RightHand -12.143195 -0.000000 7.412421
RightHandThumb1 -24.326973 -0.000000 -32.862282
LeftUpLeg -3.589128 3.099873 1.095056
LeftLeg -2.999714 -0.000000 0.000000
LeftFoot -9.707917 6.096338 -16.515708
LeftToeBase 3.800807 -0.000000 -0.000000
RightUpLeg -6.244292 -7.824939 1.967967
RightLeg 1.646256 -0.000000 -0.000000
RightFoot -9.510605 -2.536708 -5.808092
RightToeBase -0.851757 -0.000000 0.000000
76
root -2.576792 32.760937 -0.725373 10.415562 -1.076570 -1.163277
Spine -10.482847 5.352512 1.632802
Head -4.377405 -4.176719 8.451332
LeftShoulder -12.065719 17.627882 27.863919
LeftArm 22.197983 -18.656744 -32.063101
LeftForeArm 9.339446 -0.000000 12.905092
LeftHand -28.819516 -0.000000 -3.803647
LeftHandThumb1 -26.253704 0.000000 33.147579
RightShoulder -18.160434 15.755394 -40.435935
RightArm -10.250294 5.847819 35.277576
RightForeArm -28.934609 -0.000000 16.704209
RightHand -12.127740 0.000000 7.386021
RightHandThumb1 -24.326973 -0.000000 -32.862282
LeftUpLeg -3.573515 3.097524 1.095719
LeftLeg -3.011640 -0.000000 0.000000
LeftFoot -9.704562 6.112467 -16.477351
LeftToeBase 3.913034 -0.000000 -0.000000
RightUpLeg -6.233729 -7.841987 1.967943
RightLeg 1.644178 -0.000000 -0.000000
RightFoot -9.500464 -2.510207 -5.813484
RightToeBase -0.856067 -0.000000 0.000000
77
root -2.577547 32.760817 -0.722295 10.419299 -1.080067 -1.164844
Spine -10.495358 5.357085 1.621700
Head -4.394598 -4.169038 8.471994
LeftShoulder -12.061641 17.645584 27.879282
LeftArm 22.205829 -18.673851 -32.070945
LeftForeArm 9.370304 -0.000000 12.901625
LeftHand -28.803204 -0.000000 -3.795572
LeftHandThumb1 -26.253704 0.000000 33.147579
RightShoulder -18.158064 15.738438 -40.407755
RightArm -10.228742 5.864963 35.261442
RightForeArm -28.931366 -0.000000 16.691756
RightHand -12.132109 -0.000000 7.391511
RightHandThumb1 -24.326973 -0.000000 -32.862282
LeftUpLeg -3.572531 3.109612 1.097765
LeftLeg -3.008755 -0.000000 0.000000
LeftFoot -9.710092 6.099910 -16.488401
LeftToeBase 3.929026 -0.000000 -0.000000
RightUpLeg -6.229657 -7.851094 1.971933
RightLeg 1.638608 -0.000000 -0.000000
RightFoot -9.504498 -2.502235 -5.809410
RightToeBase -0.845400 -0.000000 0.000000
